<mxfile host="app.diagrams.net" modified="2024-04-03T16:25:58.024Z" agent="Mozilla/5.0 (Windows NT 10.0; Win64; x64) AppleWebKit/537.36 (KHTML, like Gecko) Chrome/121.0.0.0 Safari/537.36" etag="-Suy5KHGPPHzqTkAxKgr" version="24.2.1" type="github">
  <diagram name="Trang-1" id="yMwMD28b_DiJ1Oe9nZCm">
    <mxGraphModel dx="1005" dy="440" grid="1" gridSize="10" guides="1" tooltips="1" connect="1" arrows="1" fold="1" page="1" pageScale="1" pageWidth="827" pageHeight="1169" math="0" shadow="0">
      <root>
        <mxCell id="0" />
        <mxCell id="1" parent="0" />
      </root>
    </mxGraphModel>
  </diagram>
</mxfile>
